<?xml version="1.0"?>
<svg xmlns="http://www.w3.org/2000/svg" id="Icons" viewBox="0 0 64 64" width="512" height="512"><path d="M61,34H55a2,2,0,0,0-2,2v1.918A8.052,8.052,0,0,1,49.2,36.4a8.356,8.356,0,0,1-2.3-2.633l-2.571-4.63A6.1,6.1,0,0,0,38.864,26,2.977,2.977,0,0,0,36,29v8H25.417a3,3,0,0,0-2.947,3.562l.155.812A2,2,0,0,0,24.589,43H30a1,1,0,0,1,0,2H25.128a1.5,1.5,0,0,0-1.474,1.781h0A1.5,1.5,0,0,0,25.128,48H30a1,1,0,0,1,0,2H26.08a1.5,1.5,0,0,0-1.473,1.781h0A1.5,1.5,0,0,0,26.08,53H30a1,1,0,0,1,0,2H27.637a2,2,0,0,0-1.965,2.374l.036.187A3,3,0,0,0,28.655,60H53v1a2,2,0,0,0,2,2h6a2,2,0,0,0,2-2V36A2,2,0,0,0,61,34ZM55,61V36h6l0,25Z" style="fill:#c4a2fc"/><path d="M48.537,16.947,35.521,14.02,28.715,2.545a3.156,3.156,0,0,0-5.428,0l-6.8,11.475L3.465,16.947a3.155,3.155,0,0,0-1.677,5.161L10.6,32.127,9.36,45.41A3.155,3.155,0,0,0,13.751,48.6L26,43.317,38.252,48.6a3.156,3.156,0,0,0,4.391-3.191L41.405,32.127l8.809-10.019A3.155,3.155,0,0,0,48.537,16.947Zm.175,3.841-9.1,10.342a1,1,0,0,0-.245.753L40.651,45.6a1.155,1.155,0,0,1-1.607,1.169L26.4,41.311a.994.994,0,0,0-.793,0L12.959,46.765A1.155,1.155,0,0,1,11.352,45.6L12.63,31.883a1,1,0,0,0-.245-.753L3.29,20.788a1.156,1.156,0,0,1,.615-1.89l13.436-3.022a1,1,0,0,0,.641-.465L25.008,3.566a1.154,1.154,0,0,1,1.986,0l7.027,11.845a1,1,0,0,0,.64.465L48.1,18.9A1.155,1.155,0,0,1,48.712,20.788Z" style="fill:#151a6a"/></svg>
